<mxfile host="app.diagrams.net" modified="2021-08-20T02:16:40.526Z" agent="5.0 (Macintosh; Intel Mac OS X 10_14_6) AppleWebKit/605.1.15 (KHTML, like Gecko) Version/14.1.2 Safari/605.1.15" etag="Ws2N9-t0y2zgeTl4Wwxx" version="14.9.8" type="github">
  <diagram id="bxHqip3NTeEucdSQpRDR" name="Page-1">
    <mxGraphModel dx="1892" dy="1278" grid="1" gridSize="10" guides="1" tooltips="1" connect="1" arrows="1" fold="1" page="1" pageScale="1" pageWidth="850" pageHeight="1100" math="0" shadow="0">
      <root>
        <mxCell id="0" />
        <mxCell id="1" parent="0" />
        <mxCell id="rowUdvJKjDk17Sivf5kU-2" value="Game Development" style="rounded=0;whiteSpace=wrap;html=1;" vertex="1" parent="1">
          <mxGeometry x="470" y="550" width="320" height="230" as="geometry" />
        </mxCell>
        <mxCell id="rowUdvJKjDk17Sivf5kU-13" value="" style="edgeStyle=orthogonalEdgeStyle;rounded=0;orthogonalLoop=1;jettySize=auto;html=1;" edge="1" parent="1" source="rowUdvJKjDk17Sivf5kU-1">
          <mxGeometry relative="1" as="geometry">
            <mxPoint x="700" y="730" as="targetPoint" />
          </mxGeometry>
        </mxCell>
        <mxCell id="rowUdvJKjDk17Sivf5kU-1" value="Learning Unity" style="rounded=0;whiteSpace=wrap;html=1;" vertex="1" parent="1">
          <mxGeometry x="500" y="700" width="120" height="60" as="geometry" />
        </mxCell>
        <mxCell id="rowUdvJKjDk17Sivf5kU-10" value="" style="group" vertex="1" connectable="0" parent="1">
          <mxGeometry x="75" y="370" width="325" height="300" as="geometry" />
        </mxCell>
        <mxCell id="rowUdvJKjDk17Sivf5kU-8" value="Mobile Development" style="rounded=0;whiteSpace=wrap;html=1;" vertex="1" parent="rowUdvJKjDk17Sivf5kU-10">
          <mxGeometry width="325" height="300" as="geometry" />
        </mxCell>
        <mxCell id="rowUdvJKjDk17Sivf5kU-6" value="PhoneGap/ Cordova" style="rounded=1;whiteSpace=wrap;html=1;" vertex="1" parent="rowUdvJKjDk17Sivf5kU-10">
          <mxGeometry x="18.571428571428573" y="180" width="92.85714285714286" height="108" as="geometry" />
        </mxCell>
        <mxCell id="rowUdvJKjDk17Sivf5kU-11" value="" style="group" vertex="1" connectable="0" parent="1">
          <mxGeometry x="450" y="70" width="340" height="250" as="geometry" />
        </mxCell>
        <mxCell id="rowUdvJKjDk17Sivf5kU-3" value="Web Development" style="rounded=1;whiteSpace=wrap;html=1;fillColor=#33FF99;" vertex="1" parent="rowUdvJKjDk17Sivf5kU-11">
          <mxGeometry width="339.99999999999994" height="250" as="geometry" />
        </mxCell>
        <mxCell id="rowUdvJKjDk17Sivf5kU-4" value="RoR" style="rounded=1;whiteSpace=wrap;html=1;" vertex="1" parent="rowUdvJKjDk17Sivf5kU-11">
          <mxGeometry x="11.724137931034482" y="23.80952380952381" width="140.68965517241378" height="71.42857142857143" as="geometry" />
        </mxCell>
        <mxCell id="rowUdvJKjDk17Sivf5kU-5" value="CMSC207" style="rounded=1;whiteSpace=wrap;html=1;" vertex="1" parent="rowUdvJKjDk17Sivf5kU-11">
          <mxGeometry x="187.58620689655172" y="23.80952380952381" width="140.68965517241378" height="71.42857142857143" as="geometry" />
        </mxCell>
        <mxCell id="rowUdvJKjDk17Sivf5kU-7" value="CMS / Wordpress" style="rounded=1;whiteSpace=wrap;html=1;" vertex="1" parent="rowUdvJKjDk17Sivf5kU-11">
          <mxGeometry x="11.724137931034482" y="154.76190476190476" width="140.68965517241378" height="71.42857142857143" as="geometry" />
        </mxCell>
        <mxCell id="rowUdvJKjDk17Sivf5kU-9" value="Progressive Web Apps" style="rounded=1;whiteSpace=wrap;html=1;" vertex="1" parent="rowUdvJKjDk17Sivf5kU-11">
          <mxGeometry x="187.58620689655172" y="154.76190476190476" width="140.68965517241378" height="71.42857142857143" as="geometry" />
        </mxCell>
        <mxCell id="rowUdvJKjDk17Sivf5kU-12" value="Progressive Web Apps" style="rounded=1;whiteSpace=wrap;html=1;" vertex="1" parent="1">
          <mxGeometry x="210.00142857142856" y="550" width="92.85714285714286" height="108" as="geometry" />
        </mxCell>
      </root>
    </mxGraphModel>
  </diagram>
</mxfile>
